<?xml version="1.0" encoding="utf-8"?>
<!-- Generator: Adobe Illustrator 17.1.0, SVG Export Plug-In . SVG Version: 6.00 Build 0)  -->
<!DOCTYPE svg PUBLIC "-//W3C//DTD SVG 1.1//EN" "http://www.w3.org/Graphics/SVG/1.1/DTD/svg11.dtd">
<svg version="1.1" id="Layer_4" xmlns="http://www.w3.org/2000/svg" xmlns:xlink="http://www.w3.org/1999/xlink" x="0px" y="0px"
	 viewBox="0 0 40 40" enable-background="new 0 0 40 40" xml:space="preserve">
<g>
	<path fill="#FFFFFF" d="M21.2,21.4L21.2,21.4c0.2-0.4,0.4-0.7,0.7-0.9c0.3-0.2,0.8-0.4,1.2-0.4c0.3,0,0.6,0.1,0.8,0.2
		c0.2,0.2,0.4,0.4,0.5,0.7c0.1,0.3,0.2,1.1,0.2,2.2V28h3.9v-5.5c0-0.9-0.1-1.6-0.2-2.1c0,0,0,0,0,0c-0.1-0.5-0.3-1-0.7-1.4h0
		c0,0,0,0,0,0c-0.3-0.4-0.8-0.7-1.4-1c0,0,0,0,0,0c-0.6-0.2-1.3-0.4-2-0.4c-1.3,0-2.4,0.4-3.4,1.2v-1.2h-3.7V28H21v-4.1
		C21,22.7,21.1,21.9,21.2,21.4z"/>
	<path fill="#FFFFFF" d="M15.7,14.2c0-0.3-0.1-0.6-0.2-0.9c-0.1-0.2-0.2-0.4-0.5-0.7c-0.4-0.4-0.9-0.6-1.5-0.6
		c-0.6,0-1.1,0.2-1.5,0.6c-0.4,0.4-0.6,0.9-0.6,1.5c0,0.6,0.2,1.1,0.6,1.5c0.2,0.2,0.4,0.4,0.7,0.5c0.3,0.1,0.6,0.2,0.9,0.2
		c0.6,0,1.1-0.2,1.5-0.6C15.5,15.2,15.7,14.7,15.7,14.2z"/>
	<path fill="#FFFFFF" d="M15.7,17.6h-3.9V28h3.9V17.6z"/>
</g>
</svg>
