<?xml version="1.0" encoding="utf-8"?>
<!-- Generator: Adobe Illustrator 17.1.0, SVG Export Plug-In . SVG Version: 6.00 Build 0)  -->
<!DOCTYPE svg PUBLIC "-//W3C//DTD SVG 1.1//EN" "http://www.w3.org/Graphics/SVG/1.1/DTD/svg11.dtd">
<svg version="1.1" id="Layer_1" xmlns="http://www.w3.org/2000/svg" xmlns:xlink="http://www.w3.org/1999/xlink" x="0px" y="0px"
	 viewBox="0 0 40 40" enable-background="new 0 0 40 40" xml:space="preserve">
<path fill="#FFFFFF" d="M20.6,10l-0.4,0.1c-0.4,0.1-0.8,0.2-1.1,0.4L18.4,11h0c-0.4,0.4-0.7,0.8-0.9,1.3c-0.1,0.1-0.1,0.3-0.1,0.4
	c0,0.1,0,0.3-0.1,0.4c0,0.1,0,0.3,0,0.4l0,0c0,0.1,0,0.2,0,0.4c0,1.9-0.1,2.9-0.1,2.9h-2.1v3.3v0h2.1V30h4v-9.8l2.5-0.1l0.4-3.3
	l-2.9,0c0,0,0-0.7,0-2.1c0-0.3,0.1-0.6,0.2-0.8c0.1-0.1,0.2-0.2,0.3-0.3l0.2-0.1c0.1,0,0.2-0.1,0.3-0.1h0.1l1.1,0.1l0.5,0.1l0.5,0
	l0.4-3.4L21.2,10C21,10,20.9,10,20.6,10z"/>
</svg>
